# xmcd CD database file
#
# Track frame offsets:
#	150
#	19799
#	44918
#	70150
#	99683
#	128682
#	152881
#	178434
#	194733
#	210282
#	232581
#	254910
#
# Disc length: 3646 seconds
#
# Revision: 0
# Processed by: cddbd v1.5.2PL0 Copyright (c) Steve Scherf et al.
# Submitted via: CDex 1.51
#
DISCID=b20e3c0c
DTITLE=Kurt Elling - Flirting with Twilight
DYEAR=2001
DGENRE=Jazz
TTITLE0=Moonlight Serenade
TTITLE1=Detour Ahead
TTITLE2=You Don't Know What Love Is
TTITLE3=Orange Blossoms In Summertime
TTITLE4=Not While I'm Around
TTITLE5=Easy Living
TTITLE6=Lil' Darlin'
TTITLE7=I Get Along Without You Very Well
TTITLE8=Blame It On My Youth
TTITLE9=I'm Thru With Love
TTITLE10=Say It
TTITLE11=While You Are Mine
EXTD=YEAR: 2001
EXTT0=
EXTT1=
EXTT2=
EXTT3=
EXTT4=
EXTT5=
EXTT6=
EXTT7=
EXTT8=
EXTT9=
EXTT10=
EXTT11=
PLAYORDER=
